<svg width="100%" viewBox="0 0 680 560" xmlns="http://www.w3.org/2000/svg" role="img">
  <title>Ισοδύναμο Άμμου EN 933-8 — Μέτρηση h1 και h2</title>
  <desc>Κύλινδρος SE με σωστές αναλογίες στρωμάτων, h1 αριστερά, h2 δεξιά με έμβολο</desc>
  <defs>
    <marker id="arr" viewBox="0 0 10 10" refX="8" refY="5" markerWidth="5" markerHeight="5" orient="auto-start-reverse">
      <path d="M2 1L8 5L2 9" fill="none" stroke="context-stroke" stroke-width="1.5" stroke-linecap="round" stroke-linejoin="round"/>
    </marker>
    <clipPath id="cyl"><rect x="305" y="70" width="50" height="430"/></clipPath>
    <style>
      @font-face { font-family: 'IBMPlexSans'; src: url('../../../fonts/IBMPlexSans-Regular.ttf'); font-weight: 400; }
      @font-face { font-family: 'IBMPlexSans'; src: url('../../../fonts/IBMPlexSans-Bold.ttf');    font-weight: 700; }
      text { font-family: 'IBMPlexSans', Arial, sans-serif; fill: #2c2c2a; }
      .th  { font-size: 14px; font-weight: 600; }
      .ts  { font-size: 12px; fill: #5f5e5a; }
    </style>
  </defs>
  <rect x="305" y="120" width="50" height="55" fill="#eeece6" clip-path="url(#cyl)"/>
  <rect x="305" y="175" width="50" height="260" fill="#b4b2a9" fill-opacity="0.65" clip-path="url(#cyl)"/>
  <rect x="305" y="435" width="50" height="65" fill="#73726c" fill-opacity="0.9" clip-path="url(#cyl)"/>
  <g fill="#444441" clip-path="url(#cyl)">
    <circle cx="316" cy="446" r="3"/><circle cx="328" cy="455" r="2.5"/>
    <circle cx="340" cy="443" r="3"/><circle cx="350" cy="452" r="2.5"/>
    <circle cx="312" cy="465" r="2.5"/><circle cx="325" cy="473" r="3"/>
    <circle cx="338" cy="466" r="2.5"/><circle cx="350" cy="476" r="3"/>
    <circle cx="316" cy="486" r="3"/><circle cx="330" cy="492" r="2.5"/>
    <circle cx="344" cy="484" r="3"/><circle cx="353" cy="475" r="2.5"/>
  </g>
  <rect x="305" y="70" width="50" height="430" rx="2" fill="none" stroke="#2c2c2a" stroke-width="2"/>
  <g stroke="#2c2c2a" stroke-width="0.5">
    <line x1="309" y1="120" x2="315" y2="120"/><line x1="309" y1="160" x2="315" y2="160"/>
    <line x1="309" y1="200" x2="315" y2="200"/><line x1="309" y1="240" x2="315" y2="240"/>
    <line x1="309" y1="280" x2="315" y2="280"/><line x1="309" y1="320" x2="315" y2="320"/>
    <line x1="309" y1="360" x2="315" y2="360"/><line x1="309" y1="400" x2="315" y2="400"/>
    <line x1="309" y1="440" x2="315" y2="440"/><line x1="309" y1="480" x2="315" y2="480"/>
    <line x1="345" y1="120" x2="351" y2="120"/><line x1="345" y1="160" x2="351" y2="160"/>
    <line x1="345" y1="200" x2="351" y2="200"/><line x1="345" y1="240" x2="351" y2="240"/>
    <line x1="345" y1="280" x2="351" y2="280"/><line x1="345" y1="320" x2="351" y2="320"/>
    <line x1="345" y1="360" x2="351" y2="360"/><line x1="345" y1="400" x2="351" y2="400"/>
    <line x1="345" y1="440" x2="351" y2="440"/><line x1="345" y1="480" x2="351" y2="480"/>
  </g>
  <line x1="303" y1="120" x2="357" y2="120" stroke="#2c2c2a" stroke-width="1.2" stroke-dasharray="4 3"/>
  <line x1="303" y1="400" x2="357" y2="400" stroke="#2c2c2a" stroke-width="1.2" stroke-dasharray="4 3"/>
  <line x1="305" y1="175" x2="355" y2="175" stroke="#2c2c2a" stroke-width="2.5"/>
  <rect x="296" y="500" width="68" height="7" rx="3" fill="#73726c" opacity="0.6"/>
  <rect x="329" y="20" width="3" height="415" fill="#2c2c2a" opacity="0.7"/>
  <polygon points="323,435 337,435 330,450" fill="#2c2c2a" opacity="0.85"/>
  <line x1="323" y1="422" x2="307" y2="422" stroke="#2c2c2a" stroke-width="1.2"/>
  <line x1="337" y1="422" x2="353" y2="422" stroke="#2c2c2a" stroke-width="1.2"/>
  <rect x="316" y="64" width="28" height="9" rx="2" fill="#2c2c2a"/>
  <rect x="312" y="60" width="36" height="6" rx="1" fill="#73726c"/>
  <rect x="329" y="58" width="2" height="17" fill="#eeece6"/>
  <rect x="316" y="8" width="28" height="13" rx="3" fill="#2c2c2a"/>
  <rect x="310" y="17" width="40" height="5" rx="2" fill="#73726c" opacity="0.8"/>
  <line x1="284" y1="175" x2="284" y2="500" stroke="#2c2c2a" stroke-width="1.5" marker-start="url(#arr)" marker-end="url(#arr)"/>
  <line x1="284" y1="175" x2="305" y2="175" stroke="#2c2c2a" stroke-width="0.8"/>
  <line x1="284" y1="500" x2="305" y2="500" stroke="#2c2c2a" stroke-width="0.8"/>
  <text class="th" x="210" y="332" text-anchor="middle">h&#x2081;</text>
  <text class="ts" x="210" y="350" text-anchor="middle">&#946;&#940;&#963;&#951; &#8594;</text>
  <text class="ts" x="210" y="364" text-anchor="middle">&#949;&#960;&#953;&#966;. &#945;&#953;&#974;&#961;.</text>
  <line x1="252" y1="342" x2="282" y2="342" stroke="#2c2c2a" stroke-width="0.4" stroke-dasharray="3 2"/>
  <line x1="374" y1="21" x2="374" y2="70" stroke="#2c2c2a" stroke-width="1.5" marker-start="url(#arr)" marker-end="url(#arr)"/>
  <line x1="355" y1="21" x2="376" y2="21" stroke="#2c2c2a" stroke-width="0.8"/>
  <line x1="355" y1="70" x2="376" y2="70" stroke="#2c2c2a" stroke-width="0.8"/>
  <text class="th" x="452" y="36" text-anchor="middle">h&#x2082;</text>
  <text class="ts" x="452" y="54" text-anchor="middle">&#967;&#949;&#943;&#955;&#959;&#962; &#8594;</text>
  <text class="ts" x="452" y="68" text-anchor="middle">&#954;&#949;&#966;&#945;&#955;&#942; &#949;&#956;&#946;.</text>
  <line x1="376" y1="46" x2="418" y2="46" stroke="#2c2c2a" stroke-width="0.4" stroke-dasharray="3 2"/>
  <line x1="305" y1="147" x2="238" y2="135" stroke="#888780" stroke-width="0.5" stroke-dasharray="3 2"/>
  <circle cx="305" cy="147" r="2" fill="#888780"/>
  <text class="ts" x="234" y="131" text-anchor="end">&#922;&#945;&#952;&#945;&#961;&#972; &#948;&#953;&#940;&#955;&#965;&#956;&#945;</text>
  <line x1="305" y1="307" x2="238" y2="307" stroke="#888780" stroke-width="0.5" stroke-dasharray="3 2"/>
  <circle cx="305" cy="307" r="2" fill="#888780"/>
  <text class="ts" x="234" y="303" text-anchor="end">&#913;&#953;&#974;&#961;&#951;&#963;&#951; &#945;&#961;&#947;&#943;&#955;&#959;&#965;</text>
  <line x1="305" y1="468" x2="238" y2="472" stroke="#888780" stroke-width="0.5" stroke-dasharray="3 2"/>
  <circle cx="305" cy="468" r="2" fill="#888780"/>
  <text class="ts" x="234" y="472" text-anchor="end">&#943;&#950;&#951;&#956;&#945; &#940;&#956;&#956;&#959;&#965;</text>
  <text class="ts" x="359" y="118" text-anchor="start">380</text>
  <text class="ts" x="359" y="398" text-anchor="start">100</text>
  <rect x="240" y="522" width="200" height="24" rx="5" fill="none" stroke="#2c2c2a" stroke-width="1"/>
  <text class="th" x="340" y="539" text-anchor="middle">SE = (h&#x2082; / h&#x2081;) &#215; 100</text>
</svg>
